<svg width="32" height="32" viewBox="0 0 32 32" fill="none" xmlns="http://www.w3.org/2000/svg">
  <path d="M 16 29 C 11 29, 8.5 26.5, 8.5 23 C 8.5 19.5, 11 17, 14.5 17 C 18 17, 20.5 19.5, 20.5 22.5 C 20.5 24.5, 19.2 25.8, 17.3 25.8 C 15.8 25.8, 15 24.8, 15 23.5 C 15 22.5, 15.5 22, 16 22 L 16 13 C 16 9.5, 17.5 7, 19.5 5.5 C 20.5 4.8, 21.2 4, 22 3" stroke="#4ECDC4" stroke-width="3.5" stroke-linecap="round" fill="none"/>
  <path d="M 18 7 C 20 5.5, 21 4, 22 3 C 23 4, 24 5.5, 26 7" stroke="#2563eb" stroke-width="4" stroke-linecap="round" stroke-linejoin="round" fill="none"/>
  <circle cx="22" cy="3" r="3" fill="#7EDDD6"/>
  <circle cx="22" cy="3" r="1.3" fill="white" opacity="0.7"/>
</svg>
